# This file uses centimeters as units for non-parametric coordinates.

mtllib color_box.mtl
g default
v -0.525668 4.339262 0.498581
v 0.775328 5.300579 0.507843
v -0.993443 4.964355 0.511828
v 0.307554 5.925673 0.521090
v -0.950235 4.946321 -3.872503
v 0.350762 5.907638 -3.863241
v -0.482460 4.321228 -3.885751
v 0.818537 5.282545 -3.876489
v -0.500000 -0.500000 0.500000
v 1.125767 -0.500000 0.500000
v -0.520015 4.355860 0.498296
v 1.125767 4.328221 0.500000
v -0.491809 4.316911 -3.889966
v 1.125767 4.328221 -3.890663
v -0.500000 -0.500000 -3.890663
v 1.125767 -0.500000 -3.890663
vt 0.881914 0.726683
vt 0.100218 0.668058
vt 0.103081 0.770926
vt 0.102901 0.717218
vt 0.511716 0.715137
vt 0.469074 0.716541
vt 0.510578 0.668852
vt 0.470692 0.670462
vt 0.869948 0.838223
vt 0.062931 0.668474
vt 0.520803 0.728393
vt 0.513965 0.834804
vt 0.889573 0.142491
vt 0.100811 0.143553
vt 0.101062 0.667820
vt 0.063114 0.668191
vt 0.511703 0.667926
vt 0.470637 0.667389
vt 0.470888 0.143984
vt 0.471503 0.097261
vt 0.516752 0.144001
vt 0.100081 0.097752
vt 0.468763 0.772362
vt 0.061348 0.716688
vt 0.520341 0.142778
vt 0.519384 0.720956
vt 0.061405 0.142192
vt 0.884078 0.724998
vn 0.005498 -0.017075 0.999839
vn 0.005498 -0.017075 0.999839
vn 0.005498 -0.017075 0.999839
vn 0.005498 -0.017075 0.999839
vn -0.594208 0.804259 -0.009164
vn -0.594208 0.804259 -0.009164
vn -0.594208 0.804259 -0.009164
vn -0.594208 0.804259 -0.009164
vn -0.005499 0.017075 -0.999839
vn -0.005499 0.017075 -0.999839
vn -0.005499 0.017075 -0.999839
vn -0.005499 0.017075 -0.999839
vn 0.800685 0.599060 0.005427
vn 0.800685 0.599060 0.005427
vn 0.800685 0.599060 0.005427
vn 0.800685 0.599061 0.005427
vn -0.800686 -0.599060 -0.005427
vn -0.800686 -0.599060 -0.005427
vn -0.800686 -0.599060 -0.005427
vn -0.800686 -0.599060 -0.005427
vn -0.000519 0.000175 1.000000
vn -0.000519 0.000175 1.000000
vn -0.000519 0.000175 1.000000
vn -0.000519 0.000175 1.000000
vn -0.000215 0.000072 -1.000000
vn -0.000215 0.000072 -1.000000
vn -0.000215 0.000072 -1.000000
vn -0.000215 0.000072 -1.000000
vn 0.000000 -1.000000 0.000000
vn 0.000000 -1.000000 0.000000
vn 0.000000 -1.000000 0.000000
vn 0.000000 -1.000000 0.000000
vn 1.000000 0.000000 -0.000000
vn 1.000000 0.000000 -0.000000
vn 1.000000 0.000000 -0.000000
vn 1.000000 0.000000 -0.000000
vn -0.999994 -0.001223 -0.003208
vn -0.999994 -0.001223 -0.003208
vn -0.999994 -0.001223 -0.003208
vn -0.999994 -0.001223 -0.003208
s off
g pCube3
usemtl lambert2SG
#side of lig
f 1/10/1 2/2/2 4/4/3 3/24/4
#top of lid
f 3/3/5 4/4/6 6/6/7 5/23/8
#other side of lid
f 5/5/9 6/6/10 8/8/11 7/7/12
#front of lid
f 2/2/13 8/8/14 6/6/15 4/4/16
#back of lid
f 7/11/17 1/1/18 3/9/19 5/12/20

#side of box
f 9/27/21 10/14/22 12/15/23 11/16/24
#other side
f 13/17/25 14/18/26 16/19/27 15/21/28
#bottom
f 15/20/29 16/19/30 10/14/31 9/22/32

f 10/14/33 16/19/34 14/18/35 12/15/36

f 15/25/37 9/13/38 11/28/39 13/26/40
