# This file uses centimeters as units for non-parametric coordinates.

mtllib goal.mtl
g default
v 0.000000 1.698977 0.500000
v 0.000000 1.791503 0.500000
v -0.500000 1.791503 0.000000
v 0.000000 2.700197 0.000000
v 0.500000 1.791503 0.000000
v 0.000000 1.791503 -0.500000
v 0.000000 1.698977 -0.500000
v -0.500000 1.698977 0.000000
v 0.000000 0.860606 0.000000
v 0.500000 1.698977 0.000000
vt 0.000000 0.455737
vt 0.000000 0.506035
vt 0.500000 1.000000
vt 0.500000 0.506035
vt 0.500000 0.506035
vt 1.000000 0.506035
vt 1.000000 0.455737
vt 0.500000 0.000000
vt 0.500000 0.455737
vt 0.500000 0.455737
vn 0.876127 0.482081 0.000000
vn 0.000000 1.000000 0.000000
vn 0.000000 0.482080 0.876127
vn 0.000000 0.482080 -0.876127
vn -1.000000 0.000000 0.000000
vn -1.000000 0.000000 0.000000
vn 0.000000 0.000000 -1.000000
vn 0.000000 0.000000 -1.000000
vn 0.000000 -0.512217 0.858856
vn -0.858856 -0.512217 0.000000
vn 0.000000 -1.000000 0.000000
vn 0.858856 -0.512217 0.000000
vn 0.000000 -0.512217 -0.858856
vn 1.000000 0.000000 0.000000
vn 1.000000 0.000000 0.000000
vn -0.876127 0.482081 0.000000
vn 0.000000 0.000000 1.000000
vn 0.000000 0.000000 1.000000
s 1
g pCube1
usemtl lambert2SG
f 5/5/1 4/3/2 2/2/3
f 5/5/1 6/6/4 4/3/2
s 2
f 8/9/5 3/4/6 6/6/7 7/7/8
s 3
f 1/1/9 8/9/10 9/8/11
f 10/10/12 9/8/11 7/7/13
s 2
f 10/10/14 7/7/8 6/6/7 5/5/15
s 1
f 6/6/4 3/4/16 4/3/2
s 3
f 8/9/10 7/7/13 9/8/11
s 1
f 3/4/16 2/2/3 4/3/2
s 2
f 3/4/6 8/9/5 1/1/17 2/2/18
f 5/5/15 2/2/18 1/1/17 10/10/14
s 3
f 10/10/12 1/1/9 9/8/11
