# This file uses centimeters as units for non-parametric coordinates.

mtllib grave.mtl
g default
v -0.822527 -0.003883 0.822527
v 0.822527 -0.003883 0.822527
v -0.687491 0.196117 0.687491
v 0.687491 0.196117 0.687491
v -0.687490 1.376429 0.687490
v 0.687490 1.376429 0.687490
v -0.500000 1.620480 0.500000
v 0.500000 1.620480 0.500000
v -0.500000 4.904719 0.500000
v 0.500000 4.904719 0.500000
v 0.000000 6.015000 0.000000
v -0.500000 4.904719 -0.500000
v 0.500000 4.904719 -0.500000
v -0.500000 1.620480 -0.500000
v 0.500000 1.620480 -0.500000
v -0.687490 1.376429 -0.687490
v 0.687490 1.376429 -0.687490
v -0.687491 0.196117 -0.687491
v 0.687491 0.196117 -0.687491
v -0.822527 -0.003883 -0.822527
v 0.822527 -0.003883 -0.822527
vt 0.495814 0.017540
vt 0.495814 0.052091
vt 0.259380 0.052091
vt 0.495814 0.255990
vt 0.259380 0.255990
vt 0.495814 0.298150
vt 0.259380 0.298150
vt 0.495814 0.865503
vt 0.259380 0.865503
vt 0.732248 0.865503
vt 0.022946 0.865503
vt 0.732248 0.298150
vt 0.022946 0.298150
vt 0.732248 0.255990
vt 0.022946 0.255990
vt 0.732248 0.052091
vt 0.022946 0.052091
vt 0.022946 0.017540
vt 0.968682 0.865503
vt 0.394827 1.126818
vt 0.968682 0.298150
vt 0.968682 0.255990
vt 0.968682 0.052091
vt 0.968682 0.017540
vt 0.732248 0.017540
vt 0.259380 0.017540
vt 0.394827 1.126818
vt 0.394827 1.126818
vt 0.394827 1.126818
vn 0.000000 0.559575 0.828780
vn 0.000000 0.559575 0.828780
vn 0.000000 0.132356 0.991202
vn 0.000000 0.132356 0.991202
vn 0.000000 0.079826 0.996809
vn 0.000000 0.079826 0.996809
vn 0.000000 0.081415 0.996680
vn 0.000000 0.081415 0.996680
vn 0.000000 0.050719 0.998713
vn 0.000000 0.050719 0.998713
vn 0.000000 0.410620 0.911807
vn 0.000000 0.410620 -0.911807
vn 0.000000 0.050719 -0.998713
vn 0.000000 0.050719 -0.998713
vn 0.000000 0.081415 -0.996680
vn 0.000000 0.081415 -0.996680
vn 0.000000 0.079826 -0.996809
vn 0.000000 0.079826 -0.996809
vn 0.000000 0.132356 -0.991202
vn 0.000000 0.132356 -0.991202
vn 0.000000 0.559575 -0.828780
vn 0.000000 0.559575 -0.828780
vn 0.000000 -1.000000 0.000000
vn 0.000000 -1.000000 0.000000
vn 0.000000 -1.000000 0.000000
vn 0.000000 -1.000000 0.000000
vn 0.828780 0.559575 0.000000
vn 0.828780 0.559575 0.000000
vn 0.991202 0.132356 0.000000
vn 0.991202 0.132356 0.000000
vn 0.996809 0.079826 0.000000
vn 0.996809 0.079826 0.000000
vn 0.996680 0.081415 0.000000
vn 0.996680 0.081415 0.000000
vn 0.998713 0.050719 0.000000
vn 0.998713 0.050719 0.000000
vn 0.911807 0.410620 0.000000
vn -0.828780 0.559575 0.000000
vn -0.828780 0.559575 0.000000
vn -0.991202 0.132356 0.000000
vn -0.991202 0.132356 0.000000
vn -0.996809 0.079826 0.000000
vn -0.996809 0.079826 0.000000
vn -0.996680 0.081415 0.000000
vn -0.996680 0.081415 0.000000
vn -0.998713 0.050719 0.000000
vn -0.998713 0.050719 0.000000
vn -0.911807 0.410620 0.000000
s 1
g pCube1
usemtl initialShadingGroup
f 1/26/1 2/1/2 4/2/3 3/3/4
f 3/3/4 4/2/3 6/4/5 5/5/6
f 5/5/6 6/4/5 8/6/7 7/7/8
f 7/7/8 8/6/7 10/8/9 9/9/10
f 9/9/10 10/8/9 11/27/11
s 2
f 11/29/12 13/10/13 12/19/14
f 12/19/14 13/10/13 15/12/15 14/21/16
f 14/21/16 15/12/15 17/14/17 16/22/18
f 16/22/18 17/14/17 19/16/19 18/23/20
f 18/23/20 19/16/19 21/25/21 20/24/22
s off
f 20/24/23 21/25/24 2/1/25 1/26/26
s 3
f 2/1/27 21/25/28 19/16/29 4/2/30
f 4/2/30 19/16/29 17/14/31 6/4/32
f 6/4/32 17/14/31 15/12/33 8/6/34
f 8/6/34 15/12/33 13/10/35 10/8/36
f 10/8/36 13/10/35 11/20/37
s 4
f 20/18/38 1/26/39 3/3/40 18/17/41
f 18/17/41 3/3/40 5/5/42 16/15/43
f 16/15/43 5/5/42 7/7/44 14/13/45
f 14/13/45 7/7/44 9/9/46 12/11/47
f 12/11/47 9/9/46 11/28/48
