# This file uses centimeters as units for non-parametric coordinates.

mtllib small_branch.mtl
g default
v 4.515605 18.997083 1.077697
v 4.866472 19.080210 1.863020
v 5.349846 19.216065 1.199215
v 6.146543 19.414631 1.411900
v 6.403081 19.494618 1.758724
v 6.593431 19.565042 1.475195
v 4.489928 19.092939 1.078046
v 4.840794 19.176066 1.863367
v 5.324160 19.311918 1.199563
v 6.120857 19.510484 1.412247
v 6.377404 19.590474 1.759072
v 6.567754 19.660898 1.475542
v 2.816000 18.750804 1.827746
v 3.710019 18.969611 3.832688
v 5.348390 19.646503 2.327562
v 6.976105 19.830583 2.681037
v 7.636599 20.013653 3.566331
v 8.129695 20.166312 2.842332
v 2.789651 18.846485 1.827747
v 3.683670 19.065292 3.832694
v 5.322019 19.742178 2.327560
v 6.949733 19.926257 2.681031
v 7.610248 20.109333 3.566337
v 8.103344 20.261992 2.842341
v 1.595403 18.554369 1.459691
v 4.521254 19.302611 1.344896
v 5.399063 19.532224 1.817985
v 6.280172 19.765454 1.863134
v 7.161256 19.998677 1.908272
v 9.850653 20.683547 2.821958
v 0.721692 18.348457 0.657857
v 4.560485 19.314830 0.861406
v 5.441569 19.548053 0.906545
v 6.322676 19.781282 0.951687
v 7.223049 20.031388 0.988091
v 8.957835 20.478809 1.086697
v 0.780982 18.370535 -0.613440
v 4.602991 19.330659 -0.050034
v 5.484090 19.563886 -0.004897
v 6.384468 19.813993 0.031504
v 7.246281 20.030338 0.085394
v 9.543453 20.628003 -0.207406
v 2.125793 18.699243 -1.320320
v 4.160519 19.221728 -1.707751
v 5.389477 19.547033 -1.644785
v 6.618464 19.872347 -1.581828
v 7.847441 20.197657 -1.518859
v 8.460610 20.375572 -1.643992
v 3.077878 18.934631 -2.256752
v 4.043569 19.195075 -1.976040
v 5.664832 19.616830 -2.204684
v 7.684130 20.140555 -3.393024
v 7.906730 20.219735 -2.790159
v 9.434475 20.620053 -3.200240
v 3.104217 18.838947 -2.256769
v 4.069910 19.099392 -1.976047
v 5.691183 19.521149 -2.204691
v 7.710480 20.044874 -3.393035
v 7.933100 20.124060 -2.790166
v 9.460850 20.524380 -3.200240
v 4.080033 18.985538 -0.988159
v 4.801519 19.181935 -0.739668
v 5.483952 19.359300 -1.403765
v 6.410721 19.586050 -0.967020
v 6.494301 19.630825 -0.730796
v 7.098200 19.767083 -0.891513
v 4.105715 18.889683 -0.988506
v 4.827201 19.086080 -0.740015
v 5.509634 19.263446 -1.404112
v 6.436403 19.490196 -0.967366
v 6.519983 19.534971 -0.731143
v 7.123882 19.671228 -0.891861
v 4.254257 18.944424 -0.155375
v 5.053507 19.140529 -0.307185
v 5.534539 19.269319 -0.282515
v 6.015572 19.398110 -0.257843
v 6.496604 19.526900 -0.233172
v 6.734401 19.605626 -0.282133
v 3.169264 18.688710 -0.236543
v 5.265022 19.037994 0.341290
v 5.609893 19.130329 0.358979
v 5.954762 19.222663 0.376665
v 6.299632 19.314998 0.394354
v 7.960165 19.911548 0.452855
v 3.511145 18.774553 0.628994
v 5.248261 19.032208 0.698305
v 5.593131 19.124543 0.715993
v 5.938001 19.216877 0.733681
v 6.282870 19.309212 0.751368
v 7.183194 19.716954 0.910514
v 3.008739 18.618631 1.405116
v 5.232755 19.027965 0.887692
v 5.576369 19.118757 1.073008
v 5.921239 19.211091 1.090696
v 6.266109 19.303426 1.108384
v 7.635272 19.874791 1.629408
v 6.708720 19.701480 -0.281786
v 7.934483 20.007403 0.453202
v 7.157512 19.812808 0.910861
v 7.609590 19.970645 1.629754
v 8.486961 20.279892 -1.643999
v 9.569814 20.532325 -0.207420
v 8.984183 20.383128 1.086691
v 9.877013 20.587869 2.821959
v 4.228575 19.040278 -0.155028
v 3.143582 18.784565 -0.236197
v 3.485463 18.870407 0.629342
v 2.983057 18.714486 1.405464
v 2.152154 18.603566 -1.320322
v 0.807353 18.274861 -0.613431
v 0.748054 18.252780 0.657861
v 1.621774 18.458694 1.459698
vt 0.375000 0.000000
vt 0.425000 0.000000
vt 0.475000 0.000000
vt 0.525000 0.000000
vt 0.575000 0.000000
vt 0.625000 0.000000
vt 0.375000 0.083333
vt 0.425000 0.083333
vt 0.475000 0.083333
vt 0.525000 0.083333
vt 0.575000 0.083333
vt 0.625000 0.083333
vt 0.375000 0.166667
vt 0.425000 0.166667
vt 0.475000 0.166667
vt 0.525000 0.166667
vt 0.575000 0.166667
vt 0.625000 0.166667
vt 0.375000 0.250000
vt 0.425000 0.250000
vt 0.475000 0.250000
vt 0.525000 0.250000
vt 0.575000 0.250000
vt 0.625000 0.250000
vt 0.375000 0.300000
vt 0.425000 0.300000
vt 0.475000 0.300000
vt 0.525000 0.300000
vt 0.575000 0.300000
vt 0.625000 0.300000
vt 0.375000 0.350000
vt 0.425000 0.350000
vt 0.475000 0.350000
vt 0.525000 0.350000
vt 0.575000 0.350000
vt 0.625000 0.350000
vt 0.375000 0.400000
vt 0.425000 0.400000
vt 0.475000 0.400000
vt 0.525000 0.400000
vt 0.575000 0.400000
vt 0.625000 0.400000
vt 0.375000 0.450000
vt 0.425000 0.450000
vt 0.475000 0.450000
vt 0.525000 0.450000
vt 0.575000 0.450000
vt 0.625000 0.450000
vt 0.375000 0.500000
vt 0.425000 0.500000
vt 0.475000 0.500000
vt 0.525000 0.500000
vt 0.575000 0.500000
vt 0.625000 0.500000
vt 0.375000 0.583333
vt 0.425000 0.583333
vt 0.475000 0.583333
vt 0.525000 0.583333
vt 0.575000 0.583333
vt 0.625000 0.583333
vt 0.375000 0.666667
vt 0.425000 0.666667
vt 0.475000 0.666667
vt 0.525000 0.666667
vt 0.575000 0.666667
vt 0.625000 0.666667
vt 0.375000 0.750000
vt 0.425000 0.750000
vt 0.475000 0.750000
vt 0.525000 0.750000
vt 0.575000 0.750000
vt 0.625000 0.750000
vt 0.375000 0.800000
vt 0.425000 0.800000
vt 0.475000 0.800000
vt 0.525000 0.800000
vt 0.575000 0.800000
vt 0.625000 0.800000
vt 0.375000 0.850000
vt 0.425000 0.850000
vt 0.475000 0.850000
vt 0.525000 0.850000
vt 0.575000 0.850000
vt 0.625000 0.850000
vt 0.375000 0.900000
vt 0.425000 0.900000
vt 0.475000 0.900000
vt 0.525000 0.900000
vt 0.575000 0.900000
vt 0.625000 0.900000
vt 0.375000 0.950000
vt 0.425000 0.950000
vt 0.475000 0.950000
vt 0.525000 0.950000
vt 0.575000 0.950000
vt 0.625000 0.950000
vt 0.375000 1.000000
vt 0.425000 1.000000
vt 0.475000 1.000000
vt 0.525000 1.000000
vt 0.575000 1.000000
vt 0.625000 1.000000
vt 0.875000 0.000000
vt 0.825000 0.000000
vt 0.775000 0.000000
vt 0.725000 0.000000
vt 0.675000 0.000000
vt 0.875000 0.083333
vt 0.825000 0.083333
vt 0.775000 0.083333
vt 0.725000 0.083333
vt 0.675000 0.083333
vt 0.875000 0.166667
vt 0.825000 0.166667
vt 0.775000 0.166667
vt 0.725000 0.166667
vt 0.675000 0.166667
vt 0.875000 0.250000
vt 0.825000 0.250000
vt 0.775000 0.250000
vt 0.725000 0.250000
vt 0.675000 0.250000
vt 0.125000 0.000000
vt 0.175000 0.000000
vt 0.225000 0.000000
vt 0.275000 0.000000
vt 0.325000 0.000000
vt 0.125000 0.083333
vt 0.175000 0.083333
vt 0.225000 0.083333
vt 0.275000 0.083333
vt 0.325000 0.083333
vt 0.125000 0.166667
vt 0.175000 0.166667
vt 0.225000 0.166667
vt 0.275000 0.166667
vt 0.325000 0.166667
vt 0.125000 0.250000
vt 0.175000 0.250000
vt 0.225000 0.250000
vt 0.275000 0.250000
vt 0.325000 0.250000
vn -0.877526 -0.236583 0.417104
vn -0.131660 -0.038827 0.990534
vn 0.339649 -0.933919 0.111511
vn 0.179052 -0.983482 0.026538
vn 0.310349 0.079709 0.947275
vn 0.291575 -0.906759 0.304584
vn -0.439520 -0.120993 0.890046
vn 0.072431 -0.958786 0.274741
vn -0.158618 -0.046101 0.986263
vn 0.260452 -0.963225 0.066043
vn 0.787171 0.208760 0.580328
vn 0.332036 -0.943124 0.016414
vn 0.226985 -0.959032 0.169515
vn 0.136002 -0.989621 0.046410
vn 0.362781 -0.870095 0.333653
vn -0.113371 -0.872094 0.476024
vn 0.293437 -0.949180 0.113803
vn 0.360683 -0.931901 0.038319
vn -0.145230 -0.039946 0.988591
vn -0.876255 -0.241318 0.417064
vn 0.320066 0.088178 0.943283
vn -0.443067 -0.122066 0.888139
vn -0.120683 -0.033356 0.992130
vn 0.785158 0.216190 0.580335
vn -0.251358 0.967809 0.012822
vn -0.292066 0.956062 -0.025367
vn -0.280203 0.959804 -0.016221
vn -0.246623 0.969018 0.013450
vn -0.314538 0.939683 -0.134396
vn -0.296377 0.950502 -0.093312
vn -0.243775 0.969424 -0.028113
vn -0.214027 0.974132 -0.072527
vn -0.256458 0.966493 -0.011019
vn -0.256028 0.966616 0.010200
vn -0.253520 0.967182 -0.016953
vn -0.251750 0.967740 0.010021
vn -0.246945 0.969001 0.007507
vn -0.244654 0.969586 0.006912
vn -0.257689 0.966207 0.006318
vn -0.259264 0.965775 0.007798
vn -0.253181 0.967393 0.007109
vn -0.251248 0.967895 0.007331
vn -0.248047 0.968744 0.002935
vn -0.244627 0.969612 0.003140
vn -0.258865 0.965903 0.004437
vn -0.257210 0.966348 0.003741
vn -0.252708 0.967538 0.002966
vn -0.253469 0.967332 0.004828
vn -0.249360 0.968410 -0.001591
vn -0.245667 0.969347 -0.003703
vn -0.256956 0.966423 0.000935
vn -0.256859 0.966447 -0.001827
vn -0.257713 0.966211 0.004563
vn -0.258222 0.966067 0.005984
vn -0.252926 0.967473 -0.004972
vn -0.252731 0.967507 -0.007564
vn -0.254751 0.966992 -0.005317
vn -0.261497 0.965184 -0.006265
vn -0.264121 0.964474 -0.005572
vn -0.261834 0.965102 -0.004689
vn 0.260502 0.071831 -0.962797
vn 0.019885 0.005563 -0.999787
vn 0.257316 -0.941941 -0.215724
vn 0.342779 -0.865930 -0.364235
vn -0.338472 -0.093130 -0.936357
vn 0.189560 -0.967061 -0.169881
vn -0.233626 -0.064219 -0.970203
vn 0.229935 -0.949613 -0.212993
vn 0.099058 0.027307 -0.994707
vn 0.265456 -0.959174 -0.097558
vn -0.242311 -0.066755 -0.967899
vn 0.145818 -0.932055 -0.331679
vn 0.207724 -0.959741 -0.189073
vn 0.306807 -0.937595 -0.163665
vn 0.215887 -0.968695 -0.122565
vn 0.290408 -0.954025 -0.074157
vn 0.280968 -0.955489 -0.089995
vn 0.216142 -0.970668 -0.105289
vn -0.267044 -0.068067 -0.961278
vn 0.303750 0.084819 -0.948969
vn -0.126644 -0.030343 -0.991484
vn 0.517383 0.141673 -0.843945
vn 0.110251 0.033141 -0.993351
vn -0.243650 -0.061770 -0.967894
vn 0.249320 -0.968373 0.009699
vn 0.250865 -0.968014 0.003912
vn 0.244058 -0.963769 -0.107634
vn 0.228822 -0.957946 -0.173148
vn 0.246258 -0.969199 0.003285
vn 0.253281 -0.964720 -0.071863
vn 0.249107 -0.968428 0.009604
vn 0.254845 -0.964100 -0.074601
vn 0.271206 -0.962138 0.027173
vn 0.306928 -0.941435 -0.139629
vn 0.254498 -0.966590 0.030568
vn 0.314092 -0.939619 -0.135876
vn 0.188825 -0.979716 -0.067102
vn 0.158977 -0.987278 -0.002924
vn 0.262961 -0.950984 -0.162728
vn 0.262961 -0.950984 -0.162728
vn 0.323616 -0.943782 -0.067445
vn 0.345919 -0.937544 -0.036763
vn 0.165162 -0.986078 -0.019263
vn 0.154623 -0.987694 -0.023523
vn 0.258578 -0.965985 -0.003301
vn 0.258795 -0.965926 -0.003504
vn 0.357686 -0.933033 0.038858
vn 0.379389 -0.924164 0.044561
vn 0.194584 -0.980172 0.037413
vn 0.156677 -0.985555 -0.064300
vn 0.245018 -0.915310 0.319646
vn 0.174481 -0.943438 0.281923
vn 0.336057 -0.938532 0.078896
vn 0.395071 -0.918427 0.020247
vn 0.191820 -0.910207 0.367054
vn 0.137386 -0.919157 0.369154
vn 0.352793 -0.845405 0.401032
vn 0.060577 -0.910712 0.408577
vn 0.267185 -0.895326 0.356376
vn 0.309462 -0.882778 0.353465
vn 0.816092 0.220584 -0.534169
vn 0.812219 0.215649 0.542030
vn 0.428501 -0.892318 0.141968
vn 0.340119 -0.938030 -0.066476
vn 0.899852 0.242404 -0.362638
vn 0.306504 -0.951693 -0.018341
vn 0.926201 0.247122 0.284751
vn 0.353629 -0.935066 0.024440
vn 0.664882 0.175515 0.726035
vn 0.276070 -0.960832 0.024218
vn -0.134753 -0.039686 0.990084
vn 0.220680 -0.949260 0.224068
vn 0.791031 -0.428477 0.436666
vn 0.382014 -0.924077 0.012115
vn 0.363207 -0.930692 -0.043512
vn 0.353718 -0.935341 0.004688
vn 0.387906 -0.918882 0.072013
vn 0.250498 -0.961120 0.116185
vn 0.810159 0.223208 0.542052
vn 0.963546 0.265488 -0.033094
vn 0.947371 0.260979 -0.185416
vn 0.959243 0.264200 -0.100259
vn 0.859001 0.236577 0.454037
vn 0.010944 0.002973 0.999936
vn -0.948919 -0.254914 0.185935
vn -0.612667 -0.161352 -0.773695
vn 0.156431 -0.984105 -0.084059
vn 0.170391 -0.985358 -0.006022
vn -0.684436 -0.180827 -0.706293
vn 0.209030 -0.977453 -0.029856
vn -0.960320 -0.256899 -0.108572
vn 0.163078 -0.986554 -0.010855
vn -0.369607 -0.102393 0.923529
vn 0.204369 -0.976080 0.074167
vn 0.200047 0.050035 0.978508
vn 0.266626 -0.361810 0.893311
vn 0.170318 -0.981252 -0.090205
vn 0.144625 -0.987324 -0.065389
vn 0.158275 -0.985966 -0.053096
vn 0.155915 -0.987553 0.020747
vn 0.166307 -0.983496 0.071261
vn 0.191413 -0.936319 0.294395
vn -0.548608 -0.151114 -0.822310
vn -0.665934 -0.183328 -0.723134
vn -0.780384 -0.215081 -0.587146
vn -0.896174 -0.246951 0.368629
vn -0.468140 -0.128963 0.874193
vn -0.276602 -0.076173 0.957961
s 1
g pCube9
usemtl initialShadingGroup
f 1/1/1 2/2/2 8/8/3 7/7/4
f 2/2/2 3/3/5 9/9/6 8/8/3
f 3/3/5 4/4/7 10/10/8 9/9/6
f 4/4/7 5/5/9 11/11/10 10/10/8
f 5/5/9 6/6/11 12/12/12 11/11/10
f 7/7/4 8/8/3 14/14/13 13/13/14
f 8/8/3 9/9/6 15/15/15 14/14/13
f 9/9/6 10/10/8 16/16/16 15/15/15
f 10/10/8 11/11/10 17/17/17 16/16/16
f 11/11/10 12/12/12 18/18/18 17/17/17
f 13/13/14 14/14/13 20/20/19 19/19/20
f 14/14/13 15/15/15 21/21/21 20/20/19
f 15/15/15 16/16/16 22/22/22 21/21/21
f 16/16/16 17/17/17 23/23/23 22/22/22
f 17/17/17 18/18/18 24/24/24 23/23/23
s 2
f 19/19/25 20/20/26 26/26/27 25/25/28
f 20/20/26 21/21/29 27/27/30 26/26/27
f 21/21/29 22/22/31 28/28/32 27/27/30
f 22/22/31 23/23/33 29/29/34 28/28/32
f 23/23/33 24/24/35 30/30/36 29/29/34
f 25/25/28 26/26/27 32/32/37 31/31/38
f 26/26/27 27/27/30 33/33/39 32/32/37
f 27/27/30 28/28/32 34/34/40 33/33/39
f 28/28/32 29/29/34 35/35/41 34/34/40
f 29/29/34 30/30/36 36/36/42 35/35/41
f 31/31/38 32/32/37 38/38/43 37/37/44
f 32/32/37 33/33/39 39/39/45 38/38/43
f 33/33/39 34/34/40 40/40/46 39/39/45
f 34/34/40 35/35/41 41/41/47 40/40/46
f 35/35/41 36/36/42 42/42/48 41/41/47
f 37/37/44 38/38/43 44/44/49 43/43/50
f 38/38/43 39/39/45 45/45/51 44/44/49
f 39/39/45 40/40/46 46/46/52 45/45/51
f 40/40/46 41/41/47 47/47/53 46/46/52
f 41/41/47 42/42/48 48/48/54 47/47/53
f 43/43/50 44/44/49 50/50/55 49/49/56
f 44/44/49 45/45/51 51/51/57 50/50/55
f 45/45/51 46/46/52 52/52/58 51/51/57
f 46/46/52 47/47/53 53/53/59 52/52/58
f 47/47/53 48/48/54 54/54/60 53/53/59
s 3
f 49/49/61 50/50/62 56/56/63 55/55/64
f 50/50/62 51/51/65 57/57/66 56/56/63
f 51/51/65 52/52/67 58/58/68 57/57/66
f 52/52/67 53/53/69 59/59/70 58/58/68
f 53/53/69 54/54/71 60/60/72 59/59/70
f 55/55/64 56/56/63 62/62/73 61/61/74
f 56/56/63 57/57/66 63/63/75 62/62/73
f 57/57/66 58/58/68 64/64/76 63/63/75
f 58/58/68 59/59/70 65/65/77 64/64/76
f 59/59/70 60/60/72 66/66/78 65/65/77
f 61/61/74 62/62/73 68/68/79 67/67/80
f 62/62/73 63/63/75 69/69/81 68/68/79
f 63/63/75 64/64/76 70/70/82 69/69/81
f 64/64/76 65/65/77 71/71/83 70/70/82
f 65/65/77 66/66/78 72/72/84 71/71/83
s 4
f 67/67/85 68/68/86 74/74/87 73/73/88
f 68/68/86 69/69/89 75/75/90 74/74/87
f 69/69/89 70/70/91 76/76/92 75/75/90
f 70/70/91 71/71/93 77/77/94 76/76/92
f 71/71/93 72/72/95 78/78/96 77/77/94
f 73/73/88 74/74/87 80/80/97 79/79/98
f 74/74/87 75/75/90 81/81/99 80/80/97
f 75/75/90 76/76/92 82/82/100 81/81/99
f 76/76/92 77/77/94 83/83/101 82/82/100
f 77/77/94 78/78/96 84/84/102 83/83/101
f 79/79/98 80/80/97 86/86/103 85/85/104
f 80/80/97 81/81/99 87/87/105 86/86/103
f 81/81/99 82/82/100 88/88/106 87/87/105
f 82/82/100 83/83/101 89/89/107 88/88/106
f 83/83/101 84/84/102 90/90/108 89/89/107
f 85/85/104 86/86/103 92/92/109 91/91/110
f 86/86/103 87/87/105 93/93/111 92/92/109
f 87/87/105 88/88/106 94/94/112 93/93/111
f 88/88/106 89/89/107 95/95/113 94/94/112
f 89/89/107 90/90/108 96/96/114 95/95/113
f 91/91/110 92/92/109 2/98/115 1/97/116
f 92/92/109 93/93/111 3/99/117 2/98/115
f 93/93/111 94/94/112 4/100/118 3/99/117
f 94/94/112 95/95/113 5/101/119 4/100/118
f 95/95/113 96/96/114 6/102/120 5/101/119
s 5
f 78/104/121 72/103/122 66/108/123 97/109/124
f 84/105/125 78/104/121 97/109/124 98/110/126
f 90/106/127 84/105/125 98/110/126 99/111/128
f 96/107/129 90/106/127 99/111/128 100/112/130
f 6/6/131 96/107/129 100/112/130 12/12/132
f 97/109/124 66/108/123 60/113/133 101/114/134
f 98/110/126 97/109/124 101/114/134 102/115/135
f 99/111/128 98/110/126 102/115/135 103/116/136
f 100/112/130 99/111/128 103/116/136 104/117/137
f 12/12/132 100/112/130 104/117/137 18/18/138
f 101/114/134 60/113/133 54/118/139 48/119/140
f 102/115/135 101/114/134 48/119/140 42/120/141
f 103/116/136 102/115/135 42/120/141 36/121/142
f 104/117/137 103/116/136 36/121/142 30/122/143
f 18/18/138 104/117/137 30/122/143 24/24/144
s 6
f 67/123/145 73/124/146 105/129/147 61/128/148
f 73/124/146 79/125/149 106/130/150 105/129/147
f 79/125/149 85/126/151 107/131/152 106/130/150
f 85/126/151 91/127/153 108/132/154 107/131/152
f 91/127/153 1/1/155 7/7/156 108/132/154
f 61/128/148 105/129/147 109/134/157 55/133/158
f 105/129/147 106/130/150 110/135/159 109/134/157
f 106/130/150 107/131/152 111/136/160 110/135/159
f 107/131/152 108/132/154 112/137/161 111/136/160
f 108/132/154 7/7/156 13/13/162 112/137/161
f 55/133/158 109/134/157 43/139/163 49/138/164
f 109/134/157 110/135/159 37/140/165 43/139/163
f 110/135/159 111/136/160 31/141/166 37/140/165
f 111/136/160 112/137/161 25/142/167 31/141/166
f 112/137/161 13/13/162 19/19/168 25/142/167
