# This file uses centimeters as units for non-parametric coordinates.

mtllib trunk.mtl
g default
v 1.531292 -0.001907 -0.458668
v 1.171096 -0.001862 -0.796763
v 1.126875 -0.001827 -1.477089
v 0.296053 -0.001807 -1.310048
v -0.182479 -0.001803 -1.283141
v -0.533270 -0.001816 -1.466622
v -1.139518 -0.001843 -1.486088
v -1.286776 -0.001884 -0.733058
v -1.551125 -0.001933 -0.523160
v -1.928038 -0.001987 -0.006051
v -1.399259 -0.002038 0.469171
v -1.346842 -0.002083 0.855794
v -1.127132 -0.002118 1.480297
v -0.450375 -0.002138 1.363866
v 0.004249 -0.002142 1.636694
v 0.602908 -0.002130 1.747566
v 0.755884 -0.002102 0.875222
v 1.043533 -0.002062 0.564157
v 1.254547 -0.002012 0.277839
v 1.302520 -0.001959 -0.063944
v 0.949425 0.631650 -0.288723
v 0.806325 0.631696 -0.554294
v 0.650143 0.631730 -0.890162
v 0.305042 0.631750 -0.901618
v -0.004071 0.631755 -0.949372
v -0.312795 0.631742 -0.904071
v -0.665997 0.631714 -0.915241
v -0.811194 0.631674 -0.560716
v -0.952082 0.631625 -0.296273
v -0.999783 0.631572 -0.002704
v -0.949628 0.631520 0.291253
v -0.806528 0.631475 0.556824
v -0.584488 0.631440 0.768014
v -0.305245 0.631420 0.904148
v 0.003867 0.631416 0.951902
v 0.327212 0.631428 0.997536
v 0.590707 0.631456 0.772680
v 0.810990 0.631496 0.563247
v 0.951878 0.631546 0.298803
v 0.999579 0.631599 0.005234
v -0.000129 -0.001972 0.001604
v 1.089549 17.573081 -0.311836
v 0.806555 17.573127 -0.557163
v 0.638990 17.573161 -0.810001
v 0.305273 17.573184 -0.904487
v -0.003840 17.573188 -0.952241
v -0.340088 17.573173 -0.981767
v -0.590680 17.573146 -0.773019
v -0.752285 17.573104 -0.527076
v -0.951851 17.573056 -0.299142
v -0.999552 17.573003 -0.005573
v -0.949398 17.572951 0.288384
v -0.806297 17.572906 0.553955
v -0.598368 17.572871 0.803494
v -0.305015 17.572852 0.901279
v 0.004098 17.572846 0.949033
v 0.358978 17.572860 0.936676
v 0.590938 17.572886 0.769810
v 0.811221 17.572928 0.560377
v 0.952109 17.572978 0.295934
v 0.999810 17.573029 0.002365
v 0.524983 25.581790 -0.150752
v 0.394890 25.581836 -0.263545
v 0.024278 25.581723 -0.008191
v 0.317914 25.581870 -0.379754
v 0.164567 25.581893 -0.423105
v 0.022360 25.581897 -0.445071
v -0.132111 25.581881 -0.458700
v -0.247170 25.581855 -0.362792
v -0.321514 25.581813 -0.249677
v -0.413257 25.581765 -0.144907
v -0.435172 25.581712 -0.010016
v -0.412120 25.581660 0.125110
v -0.346376 25.581614 0.247142
v -0.250781 25.581580 0.361817
v -0.115925 25.581561 0.406772
v 0.026076 25.581555 0.428720
v 0.189200 25.581569 0.423009
v 0.295832 25.581595 0.346342
v 0.397037 25.581637 0.250095
v 0.461794 25.581687 0.128544
v 0.483721 25.581738 -0.006366
vt 0.726366 -0.121258
vt 0.681748 -0.121257
vt 0.676503 -0.090487
vt 0.688003 -0.090489
vt 0.665838 -0.121255
vt 0.665791 -0.090485
vt 0.676356 0.732293
vt 0.684891 0.732291
vt 0.651193 -0.121253
vt 0.652265 -0.090483
vt 0.665644 0.732295
vt 0.654697 1.121245
vt 0.658618 1.121243
vt 0.633712 -0.121250
vt 0.637250 -0.090480
vt 0.652119 0.732297
vt 0.649774 1.121247
vt 0.613523 -0.121247
vt 0.622215 -0.090478
vt 0.637104 0.732300
vt 0.643557 1.121250
vt 0.596231 -0.121245
vt 0.608632 -0.090476
vt 0.621033 0.732302
vt 0.636657 1.121252
vt 0.561434 -0.121243
vt 0.591453 -0.090474
vt 0.608485 0.732305
vt 0.629272 1.121254
vt 0.595553 0.732306
vt 0.623503 1.121257
vt 0.617560 1.121258
vt 0.190859 0.016015
vt 0.176208 0.001992
vt 0.156261 0.061612
vt 0.159102 0.010898
vt 0.220342 0.017736
vt 0.144290 0.012766
vt 0.213103 0.050081
vt 0.131882 0.020981
vt 0.211937 0.068711
vt 0.118401 0.032180
vt 0.219889 0.082368
vt 0.080597 0.038135
vt 0.220732 0.105970
vt 0.085402 0.061442
vt 0.188099 0.111703
vt 0.097225 0.079141
vt 0.179002 0.121994
vt 0.092180 0.105488
vt 0.156593 0.136668
vt 0.119243 0.114041
vt 0.135998 0.116082
vt 0.047726 0.001992
vt 0.042838 0.007057
vt 0.053904 0.021485
vt 0.037802 0.010053
vt 0.053983 0.003598
vt 0.035923 0.016023
vt 0.059830 0.004452
vt 0.034971 0.021560
vt 0.065097 0.006973
vt 0.034381 0.027573
vt 0.069268 0.010913
vt 0.038537 0.032053
vt 0.072591 0.015064
vt 0.043439 0.034947
vt 0.072838 0.021415
vt 0.047979 0.038519
vt 0.071887 0.026943
vt 0.053825 0.039372
vt 0.069939 0.032193
vt 0.059681 0.038475
vt 0.064969 0.035915
vt 0.309621 1.090475
vt 0.327272 1.090474
vt 0.327260 0.267694
vt 0.310191 0.267695
vt 0.285237 1.121245
vt 0.327732 1.121244
vt 0.343082 1.090474
vt 0.343070 0.267694
vt 0.334457 -0.121258
vt 0.326613 -0.121257
vt 0.352207 1.121243
vt 0.358872 1.090475
vt 0.360268 0.267695
vt 0.341730 -0.121258
vt 0.370149 1.121244
vt 0.376938 1.090476
vt 0.373085 0.267696
vt 0.349631 -0.121258
vt 0.355516 -0.121256
vt 0.381351 0.267698
vt 0.359318 -0.121254
vt 0.391558 0.267700
vt 0.364011 -0.121252
vt 0.384364 1.090478
vt 0.391570 1.090481
vt 0.522377 -0.090475
vt 0.504244 -0.090477
vt 0.502523 0.732303
vt 0.515102 0.732305
vt 0.551574 -0.121245
vt 0.513059 -0.121247
vt 0.502323 -0.121249
vt 0.490718 -0.090480
vt 0.475874 -0.121252
vt 0.475703 -0.090482
vt 0.451568 -0.121254
vt 0.460668 -0.090485
vt 0.475850 0.732298
vt 0.490865 0.732300
vt 0.431793 -0.121256
vt 0.447085 -0.090487
vt 0.460815 0.732295
vt 0.476077 1.121250
vt 0.482976 1.121253
vt 0.399852 -0.121258
vt 0.436283 -0.090489
vt 0.447231 0.732293
vt 0.469166 1.121247
vt 0.434468 0.732291
vt 0.462924 1.121245
vt 0.457059 1.121243
vt 0.247449 -0.090488
vt 0.233166 -0.090489
vt 0.233155 0.732292
vt 0.248159 0.732293
vt 0.275204 -0.121257
vt 0.240590 -0.121258
vt 0.217356 -0.090489
vt 0.217345 0.732291
vt 0.223483 1.121244
vt 0.230381 1.121245
vt 0.217337 -0.121258
vt 0.200818 -0.090488
vt 0.199193 0.732292
vt 0.216220 1.121243
vt 0.186717 -0.121258
vt 0.207877 1.121244
vt 0.000192 0.010575
vt 0.000191 0.034178
vt 0.027647 0.015743
vt 0.027648 0.001992
vn 0.749046 0.625613 -0.218032
vn 0.718182 0.626615 -0.302604
vn 0.830234 0.036351 -0.556229
vn 0.945748 0.030466 -0.323471
vn 0.379084 0.718092 -0.583643
vn 0.564102 0.062861 -0.823309
vn -0.058917 0.559742 -0.826570
vn 0.141757 0.036544 -0.989227
vn 0.108306 0.520687 -0.846850
vn 0.064414 0.024904 -0.997613
vn 0.062644 0.629143 -0.774761
vn -0.156206 0.032693 -0.987183
vn -0.440390 0.744434 -0.501871
vn -0.655365 0.072602 -0.751815
vn -0.680699 0.662962 -0.311658
vn -0.862577 0.046350 -0.503799
vn -0.583235 0.728033 -0.360285
vn -0.922428 0.053094 -0.382502
vn -0.623935 0.780934 0.029106
vn -0.997877 0.064476 0.009160
vn -0.641534 0.680111 0.354800
vn -0.941236 0.047940 0.334331
vn -0.635409 0.719248 0.280958
vn -0.815939 0.051688 0.575822
vn -0.360435 0.769629 0.527027
vn -0.565605 0.060396 0.822462
vn -0.137061 0.679407 0.720847
vn -0.262497 0.048685 0.963704
vn -0.177777 0.710249 0.681133
vn -0.107469 0.048086 0.993045
vn 0.309818 0.734280 0.604025
vn 0.306651 0.059925 0.949934
vn 0.787989 0.423415 0.446983
vn 0.668297 0.026114 0.743436
vn 0.751544 0.303996 0.585463
vn 0.794256 0.013346 0.607436
vn 0.870870 0.387654 0.302173
vn 0.946490 0.016449 0.322313
vn 0.852381 0.489809 0.183124
vn 0.993040 0.020914 0.115905
vn 0.000034 -1.000000 -0.000088
vn 0.000003 -1.000000 -0.000134
vn -0.000001 -1.000000 -0.000108
vn -0.000004 -1.000000 -0.000101
vn -0.000042 -1.000000 -0.000136
vn 0.000049 -1.000000 -0.000139
vn 0.000059 -1.000000 -0.000128
vn 0.000004 -1.000000 -0.000090
vn -0.000012 -1.000000 -0.000100
vn 0.000014 -1.000000 -0.000116
vn 0.000008 -1.000000 -0.000106
vn 0.000008 -1.000000 -0.000117
vn 0.000030 -1.000000 -0.000082
vn 0.000002 -1.000000 -0.000097
vn -0.000008 -1.000000 -0.000124
vn 0.000044 -1.000000 -0.000104
vn -0.000003 -1.000000 -0.000089
vn -0.000083 -1.000000 -0.000077
vn -0.000002 -1.000000 -0.000155
vn 0.000004 -1.000000 -0.000160
vn 0.000003 -1.000000 -0.000139
vn -0.000023 1.000000 0.000391
vn -0.000037 1.000000 0.000378
vn -0.000029 1.000000 0.000383
vn -0.000018 1.000000 0.000365
vn 0.000002 1.000000 0.000417
vn -0.000090 1.000000 0.000400
vn -0.000041 1.000000 0.000368
vn 0.000029 1.000000 0.000352
vn -0.000019 1.000000 0.000397
vn -0.000031 1.000000 0.000411
vn -0.000026 1.000000 0.000384
vn -0.000026 1.000000 0.000369
vn -0.000041 1.000000 0.000370
vn -0.000025 1.000000 0.000369
vn -0.000004 1.000000 0.000379
vn -0.000047 1.000000 0.000387
vn -0.000034 1.000000 0.000364
vn -0.000018 1.000000 0.000386
vn -0.000040 1.000000 0.000383
vn -0.000036 1.000000 0.000385
vn -0.000035 1.000000 0.000380
vn 0.805540 0.015451 -0.592340
vn 0.945174 0.015347 -0.326207
vn 0.569847 0.018515 -0.821542
vn 0.169602 0.016879 -0.985368
vn 0.077584 0.015376 -0.996867
vn -0.199601 0.017292 -0.979725
vn -0.681197 0.020398 -0.731816
vn -0.845358 0.018707 -0.533873
vn -0.921622 0.018185 -0.387663
vn -0.999830 0.017985 0.004167
vn -0.945087 0.017923 0.326327
vn -0.814735 0.017566 0.579567
vn -0.569567 0.017048 0.821768
vn -0.258579 0.016489 0.965849
vn -0.086983 0.017690 0.996053
vn 0.292489 0.018289 0.956094
vn 0.650829 0.016202 0.759051
vn 0.795245 0.016559 0.606062
vn 0.947232 0.016539 0.320123
vn 0.989882 0.015142 0.141083
vn 0.740613 0.062596 -0.669010
vn 0.653826 0.061259 -0.754161
vn 0.831951 0.062972 -0.551264
vn 0.215380 0.062358 -0.974537
vn 0.271775 0.062492 -0.960330
vn 0.118960 0.062361 -0.990939
vn 0.087427 0.062668 -0.994198
vn -0.739898 0.066025 -0.669472
vn -0.638700 0.066656 -0.766563
vn -0.793857 0.063647 -0.604765
vn -0.750869 0.063158 -0.657424
vn -0.997518 0.070298 0.004124
vn -0.984685 0.069302 -0.159975
vn -0.942828 0.069894 0.325869
vn -0.824373 0.068868 0.561842
vn -0.766398 0.068484 0.638705
vn -0.233904 0.065419 0.970056
vn -0.315541 0.065900 0.946621
vn -0.053157 0.064887 0.996476
vn 0.034783 0.064700 0.997298
vn 0.638461 0.064083 0.766982
vn 0.582689 0.064311 0.810147
vn 0.793682 0.064482 0.604906
vn 0.945394 0.064557 0.319471
vn 0.973529 0.062974 0.219718
vn 0.959675 0.062139 0.274157
s 1
g pCylinder1
usemtl lambert2SG
f 1/18/1 2/22/2 22/23/3 21/19/4
f 2/22/2 3/26/5 23/27/6 22/23/3
f 3/79/5 4/80/7 24/76/8 23/75/6
f 4/80/7 5/85/9 25/81/10 24/76/8
f 5/85/9 6/89/11 26/86/12 25/81/10
f 6/142/11 7/143/13 27/144/14 26/145/12
f 7/104/13 8/105/15 28/101/16 27/100/14
f 8/105/15 9/106/17 29/107/18 28/101/16
f 9/106/17 10/108/19 30/109/20 29/107/18
f 10/108/19 11/110/21 31/111/22 30/109/20
f 11/110/21 12/114/23 32/115/24 31/111/22
f 12/114/23 13/119/25 33/120/26 32/115/24
f 13/130/25 14/131/27 34/127/28 33/126/26
f 14/131/27 15/136/29 35/132/30 34/127/28
f 15/136/29 16/140/31 36/137/32 35/132/30
f 16/1/31 17/2/33 37/3/34 36/4/32
f 17/2/33 18/5/35 38/6/36 37/3/34
f 18/5/35 19/9/37 39/10/38 38/6/36
f 19/9/37 20/14/39 40/15/40 39/10/38
f 20/14/39 1/18/1 21/19/4 40/15/40
s 2
f 2/33/41 1/34/42 41/35/43
f 3/37/44 2/33/41 41/35/43
f 4/39/45 3/37/44 41/35/43
f 5/41/46 4/39/45 41/35/43
f 6/43/47 5/41/46 41/35/43
f 7/45/48 6/43/47 41/35/43
f 8/47/49 7/45/48 41/35/43
f 9/49/50 8/47/49 41/35/43
f 10/51/51 9/49/50 41/35/43
f 11/53/52 10/51/51 41/35/43
f 12/52/53 11/53/52 41/35/43
f 13/50/54 12/52/53 41/35/43
f 14/48/55 13/50/54 41/35/43
f 15/46/56 14/48/55 41/35/43
f 16/44/57 15/46/56 41/35/43
f 17/42/58 16/44/57 41/35/43
f 18/40/59 17/42/58 41/35/43
f 19/38/60 18/40/59 41/35/43
f 20/36/61 19/38/60 41/35/43
f 1/34/42 20/36/61 41/35/43
s 3
f 62/54/62 63/55/63 64/56/64
f 63/55/63 65/57/65 64/56/64
f 65/57/65 66/59/66 64/56/64
f 66/59/66 67/61/67 64/56/64
f 67/61/67 68/63/68 64/56/64
f 68/63/68 69/65/69 64/56/64
f 69/65/69 70/67/70 64/56/64
f 70/67/70 71/69/71 64/56/64
f 71/69/71 72/71/72 64/56/64
f 72/71/72 73/73/73 64/56/64
f 73/73/73 74/74/74 64/56/64
f 74/74/74 75/72/75 64/56/64
f 75/72/75 76/70/76 64/56/64
f 76/70/76 77/68/77 64/56/64
f 77/68/77 78/66/78 64/56/64
f 78/66/78 79/64/79 64/56/64
f 79/64/79 80/62/80 64/56/64
f 80/62/80 81/60/81 64/56/64
f 81/60/81 82/58/82 64/56/64
f 82/58/82 62/54/62 64/56/64
s 1
f 21/19/4 22/23/3 43/28/83 42/24/84
f 22/23/3 23/27/6 44/30/85 43/28/83
f 23/75/6 24/76/8 45/77/86 44/78/85
f 24/76/8 25/81/10 46/82/87 45/77/86
f 25/81/10 26/86/12 47/87/88 46/82/87
f 26/86/12 27/90/14 48/91/89 47/87/88
f 27/100/14 28/101/16 49/102/90 48/103/89
f 28/98/16 29/99/18 50/96/91 49/94/90
f 29/107/18 30/109/20 51/112/92 50/113/91
f 30/109/20 31/111/22 52/116/93 51/112/92
f 31/111/22 32/115/24 53/121/94 52/116/93
f 32/115/24 33/120/26 54/123/95 53/121/94
f 33/126/26 34/127/28 55/128/96 54/129/95
f 34/127/28 35/132/30 56/133/97 55/128/96
f 35/132/30 36/137/32 57/138/98 56/133/97
f 36/4/32 37/3/34 58/7/99 57/8/98
f 37/3/34 38/6/36 59/11/100 58/7/99
f 38/6/36 39/10/38 60/16/101 59/11/100
f 39/10/38 40/15/40 61/20/102 60/16/101
f 40/15/40 21/19/4 42/24/84 61/20/102
f 42/24/84 43/28/83 63/31/103 62/29/104
f 43/28/83 44/30/85 65/32/105 63/31/103
f 44/78/85 45/77/86 66/83/106 65/84/107
f 45/77/86 46/82/87 67/88/108 66/83/106
f 46/82/87 47/87/88 68/92/109 67/88/108
f 47/87/88 48/91/89 69/93/110 68/92/111
f 48/91/89 49/94/90 70/95/112 69/93/110
f 49/94/90 50/96/91 71/97/113 70/95/112
f 50/113/91 51/112/92 72/117/114 71/118/115
f 51/112/92 52/116/93 73/122/116 72/117/114
f 52/116/93 53/121/94 74/124/117 73/122/116
f 53/121/94 54/123/95 75/125/118 74/124/117
f 54/129/95 55/128/96 76/134/119 75/135/120
f 55/128/96 56/133/97 77/139/121 76/134/119
f 56/133/97 57/138/98 78/141/122 77/139/121
f 57/8/98 58/7/99 79/12/123 78/13/124
f 58/7/99 59/11/100 80/17/125 79/12/123
f 59/11/100 60/16/101 81/21/126 80/17/125
f 60/16/101 61/20/102 82/25/127 81/21/126
f 61/20/102 42/24/84 62/29/128 82/25/127
