# This file uses centimeters as units for non-parametric coordinates.

mtllib violet_crayon.mtl
g default
v 0.674280 -1.137898 -0.219087
v 0.573577 -1.137898 -0.416728
v 0.416728 -1.137898 -0.573577
v 0.219087 -1.137898 -0.674280
v 0.000000 -1.137898 -0.708980
v -0.219087 -1.137898 -0.674280
v -0.416728 -1.137898 -0.573577
v -0.573577 -1.137898 -0.416728
v -0.674280 -1.137898 -0.219087
v -0.708980 -1.137898 0.000000
v -0.674280 -1.137898 0.219087
v -0.573577 -1.137898 0.416728
v -0.416728 -1.137898 0.573577
v -0.219087 -1.137898 0.674280
v -0.000000 -1.137898 0.708980
v 0.219087 -1.137898 0.674280
v 0.416728 -1.137898 0.573577
v 0.573577 -1.137898 0.416728
v 0.674280 -1.137898 0.219087
v 0.708980 -1.137898 0.000000
v 0.087104 9.607730 0.075697
v 0.074096 9.607730 0.050166
v 0.053834 9.607730 0.029904
v 0.028302 9.607730 0.016895
v -0.000000 9.607730 0.012412
v -0.028302 9.607730 0.016895
v -0.053834 9.607730 0.029904
v -0.074096 9.607730 0.050166
v -0.087104 9.607730 0.075697
v -0.091587 9.607730 0.103999
v -0.087104 9.607730 0.132301
v -0.074096 9.607730 0.157833
v -0.053834 9.607730 0.178095
v -0.028302 9.607730 0.191104
v -0.000000 9.607730 0.195586
v 0.028302 9.607730 0.191104
v 0.053834 9.607730 0.178095
v 0.074095 9.607730 0.157833
v 0.087104 9.607730 0.132301
v 0.091587 9.607730 0.103999
v 0.000000 -1.137898 0.000000
v -0.000000 9.607730 0.103999
v -0.219087 7.834217 0.769324
v -0.416728 7.834217 0.668621
v -0.573577 7.834217 0.511772
v -0.674280 7.834217 0.314131
v -0.708980 7.834217 0.095044
v -0.674280 7.834217 -0.124043
v -0.573577 7.834217 -0.321684
v -0.416728 7.834217 -0.478533
v -0.219087 7.834217 -0.579236
v -0.000000 7.834217 -0.613936
v 0.219087 7.834217 -0.579236
v 0.416728 7.834217 -0.478533
v 0.573577 7.834217 -0.321684
v 0.674280 7.834217 -0.124043
v 0.708980 7.834217 0.095044
v 0.674280 7.834217 0.314131
v 0.573577 7.834217 0.511772
v 0.416728 7.834217 0.668621
v 0.219087 7.834217 0.769324
v -0.000000 7.834217 0.804024
v -0.003761 9.607730 0.194991
v -0.029114 7.834217 0.799413
v -0.029114 -1.137898 0.704369
v -0.460916 7.841888 0.434632
v -0.541839 7.841888 0.275811
v -0.569723 7.841888 0.099757
v -0.541839 7.841888 -0.076298
v -0.460916 7.841888 -0.235118
v -0.334875 7.841888 -0.361159
v -0.176054 7.841888 -0.442083
v -0.000000 7.841888 -0.469967
v 0.176054 7.841888 -0.442083
v 0.334875 7.841888 -0.361159
v 0.460916 7.841888 -0.235118
v 0.541839 7.841888 -0.076298
v 0.569723 7.841888 0.099757
v 0.541839 7.841888 0.275811
v 0.460916 7.841888 0.434632
v 0.334875 7.841888 0.560672
v 0.176054 7.841888 0.641596
v -0.000000 7.841888 0.669480
v -0.023395 7.841888 0.665774
v -0.176054 7.841888 0.641596
v -0.334875 7.841888 0.560673
v -0.000000 7.995891 0.670791
v -0.023395 7.995891 0.667085
v -0.176054 7.995891 0.642907
v -0.334875 7.995891 0.561983
v -0.460916 7.995891 0.435943
v -0.541839 7.995891 0.277122
v -0.569723 7.995891 0.101068
v -0.541839 7.995891 -0.074987
v -0.460916 7.995891 -0.233807
v -0.334875 7.995891 -0.359848
v -0.176054 7.995891 -0.440772
v -0.000000 7.995891 -0.468656
v 0.176054 7.995891 -0.440772
v 0.334875 7.995891 -0.359848
v 0.460916 7.995891 -0.233807
v 0.541839 7.995891 -0.074987
v 0.569723 7.995891 0.101068
v 0.541839 7.995891 0.277122
v 0.460916 7.995891 0.435942
v 0.334875 7.995891 0.561983
v 0.176054 7.995891 0.642907
vt 0.884421 0.288126
vt 0.862228 0.244568
vt 0.827660 0.210001
vt 0.784103 0.187807
vt 0.735819 0.180160
vt 0.687535 0.187807
vt 0.643977 0.210001
vt 0.609410 0.244568
vt 0.587216 0.288126
vt 0.579569 0.336410
vt 0.587216 0.384694
vt 0.609410 0.428251
vt 0.643977 0.462819
vt 0.687535 0.485012
vt 0.735819 0.492660
vt 0.784103 0.485012
vt 0.827660 0.462819
vt 0.862228 0.428251
vt 0.884421 0.384694
vt 0.892069 0.336410
vt 0.107353 0.026008
vt 0.120445 0.026008
vt 0.133537 0.026008
vt 0.146630 0.026008
vt 0.159722 0.026008
vt 0.172815 0.026008
vt 0.185907 0.026008
vt 0.198999 0.026008
vt 0.212092 0.026008
vt 0.225184 0.026008
vt 0.238277 0.026008
vt 0.251369 0.026008
vt 0.264461 0.026008
vt 0.277554 0.026008
vt 0.290646 0.026008
vt 0.303739 0.026008
vt 0.316831 0.026008
vt 0.329924 0.026008
vt 0.343016 0.026008
vt 0.356108 0.026008
vt 0.369201 0.026008
vt 0.107353 1.023472
vt 0.120445 1.023472
vt 0.133537 1.023472
vt 0.146630 1.023472
vt 0.159722 1.023472
vt 0.172815 1.023472
vt 0.185907 1.023472
vt 0.198999 1.023472
vt 0.212092 1.023472
vt 0.225184 1.023472
vt 0.238277 1.023472
vt 0.251369 1.023472
vt 0.264461 1.023472
vt 0.277554 1.023472
vt 0.290646 1.023472
vt 0.303739 1.023472
vt 0.316831 1.023472
vt 0.329924 1.023472
vt 0.343016 1.023472
vt 0.356108 1.023472
vt 0.369201 1.023472
vt 0.747131 0.711612
vt 0.724937 0.668054
vt 0.690370 0.633487
vt 0.646812 0.611293
vt 0.598528 0.603646
vt 0.550245 0.611293
vt 0.506687 0.633487
vt 0.472120 0.668055
vt 0.449926 0.711612
vt 0.442278 0.759896
vt 0.449926 0.808180
vt 0.472120 0.851737
vt 0.506687 0.886305
vt 0.550245 0.908499
vt 0.598528 0.916146
vt 0.646812 0.908499
vt 0.690370 0.886305
vt 0.724937 0.851737
vt 0.747131 0.808180
vt 0.754778 0.759896
vt 0.735819 0.330160
vt 0.598528 0.753646
vt 0.277554 0.933059
vt 0.264461 0.933059
vt 0.251369 0.933059
vt 0.238277 0.933059
vt 0.225184 0.933059
vt 0.212092 0.933059
vt 0.198999 0.933059
vt 0.185907 0.933059
vt 0.172815 0.933059
vt 0.159722 0.933059
vt 0.146630 0.933059
vt 0.133537 0.933059
vt 0.120445 0.933059
vt 0.369201 0.933059
vt 0.107353 0.933059
vt 0.356108 0.933059
vt 0.343016 0.933059
vt 0.329924 0.933059
vt 0.316831 0.933059
vt 0.303739 0.933059
vt 0.290646 0.933059
vt 0.592112 0.604662
vt 0.288907 1.023472
vt 0.288907 0.933059
vt 0.288907 0.026008
vt 0.729402 0.491643
vt 0.251369 0.973085
vt 0.238277 0.973085
vt 0.225184 0.973085
vt 0.212092 0.973085
vt 0.198999 0.973085
vt 0.185907 0.973085
vt 0.172815 0.973085
vt 0.159722 0.973085
vt 0.146630 0.973085
vt 0.133537 0.973085
vt 0.120445 0.973085
vt 0.369201 0.973085
vt 0.107353 0.973085
vt 0.356108 0.973085
vt 0.343016 0.973085
vt 0.329924 0.973085
vt 0.316831 0.973085
vt 0.303739 0.973085
vt 0.290646 0.973085
vt 0.288907 0.973085
vt 0.277554 0.973085
vt 0.264461 0.973085
vt 0.290646 0.988654
vt 0.288907 0.988654
vt 0.277554 0.988654
vt 0.264461 0.988654
vt 0.251369 0.988654
vt 0.238277 0.988654
vt 0.225184 0.988654
vt 0.212092 0.988654
vt 0.198999 0.988654
vt 0.185907 0.988654
vt 0.172815 0.988654
vt 0.159722 0.988654
vt 0.146630 0.988654
vt 0.133537 0.988654
vt 0.120445 0.988654
vt 0.369201 0.988654
vt 0.107353 0.988654
vt 0.356108 0.988654
vt 0.343016 0.988654
vt 0.329924 0.988654
vt 0.316831 0.988654
vt 0.303739 0.988654
vn 0.950553 0.003290 -0.310546
vn 0.808195 0.006238 -0.588883
vn 0.809672 0.019035 -0.586574
vn 0.951431 0.015969 -0.307449
vn 0.586957 0.008576 -0.809573
vn 0.588451 0.021470 -0.808247
vn 0.308503 0.010076 -0.951170
vn 0.309430 0.023034 -0.950643
vn -0.000000 0.010593 -0.999944
vn -0.000000 0.023573 -0.999722
vn -0.308503 0.010076 -0.951170
vn -0.309431 0.023034 -0.950643
vn -0.586957 0.008576 -0.809572
vn -0.588452 0.021470 -0.808247
vn -0.808195 0.006238 -0.588882
vn -0.809672 0.019035 -0.586574
vn -0.950552 0.003290 -0.310547
vn -0.951430 0.015969 -0.307450
vn -0.999999 0.000018 -0.001693
vn -0.999919 0.012572 0.001689
vn -0.951548 -0.003257 0.307484
vn -0.950519 0.009178 0.310532
vn -0.809805 -0.006215 0.586666
vn -0.808197 0.006118 0.588880
vn -0.588567 -0.008564 0.808403
vn -0.586977 0.003691 0.809595
vn -0.320193 -0.010035 0.947299
vn -0.319224 0.002182 0.947677
vn -0.156425 -0.010462 0.987634
vn 0.120340 -0.010516 0.992677
vn 0.120346 0.001586 0.992731
vn -0.156434 0.002195 0.987686
vn 0.309498 -0.010073 0.950847
vn 0.308519 0.002134 0.951216
vn 0.588568 -0.008564 0.808403
vn 0.586977 0.003692 0.809595
vn 0.809805 -0.006215 0.586666
vn 0.808197 0.006118 0.588880
vn 0.951548 -0.003257 0.307484
vn 0.950519 0.009178 0.310532
vn 0.999999 0.000018 -0.001692
vn 0.999919 0.012572 0.001690
vn 0.000000 -1.000000 0.000000
vn 0.000000 -1.000000 0.000000
vn 0.000000 -1.000000 0.000000
vn 0.000000 -1.000000 0.000000
vn 0.000000 -1.000000 0.000000
vn 0.000000 -1.000000 0.000000
vn 0.000000 -1.000000 0.000000
vn 0.000000 -1.000000 0.000000
vn 0.000000 -1.000000 0.000000
vn 0.000000 -1.000000 0.000000
vn 0.000000 -1.000000 0.000000
vn 0.000000 -1.000000 0.000000
vn 0.000000 -1.000000 0.000000
vn 0.000000 -1.000000 0.000000
vn 0.000000 -1.000000 0.000000
vn 0.000000 -1.000000 0.000000
vn 0.000000 -1.000000 0.000000
vn 0.000000 -1.000000 0.000000
vn 0.000000 -1.000000 0.000000
vn 0.000000 -1.000000 0.000000
vn 0.000000 -1.000000 0.000000
vn 0.000000 -1.000000 0.000000
vn 0.000000 1.000000 0.000000
vn 0.000000 1.000000 0.000000
vn 0.000000 1.000000 -0.000002
vn 0.000000 1.000000 0.000000
vn 0.000000 1.000000 0.000000
vn 0.000000 1.000000 0.000000
vn 0.000000 1.000000 0.000009
vn 0.000000 1.000000 0.000009
vn 0.000000 1.000000 0.000000
vn 0.000000 1.000000 0.000037
vn 0.000000 1.000000 0.000000
vn 0.000000 1.000000 -0.000037
vn 0.000000 1.000000 0.000000
vn 0.000000 1.000000 0.000000
vn 0.000000 1.000000 0.000009
vn 0.000000 1.000000 0.000019
vn 0.000000 1.000000 0.000010
vn 0.000000 1.000000 0.000001
vn 0.000000 1.000000 0.000000
vn 0.000000 1.000000 0.000000
vn 0.000000 1.000000 -0.000037
vn 0.000000 1.000000 -0.000037
vn -0.297104 0.372194 0.879318
vn -0.545901 0.373200 0.750143
vn -0.750675 0.374649 0.544173
vn -0.881444 0.376475 0.285173
vn -0.925602 0.378496 -0.001224
vn -0.879153 0.380515 -0.286876
vn -0.746969 0.382334 -0.543928
vn -0.542195 0.383777 -0.747490
vn -0.284876 0.384702 -0.877981
vn -0.000000 0.385021 -0.922908
vn 0.284876 0.384702 -0.877981
vn 0.542194 0.383777 -0.747490
vn 0.746969 0.382335 -0.543927
vn 0.879153 0.380515 -0.286875
vn 0.925602 0.378496 -0.001223
vn 0.881444 0.376475 0.285173
vn 0.750675 0.374649 0.544173
vn 0.545901 0.373200 0.750143
vn 0.287166 0.372268 0.882582
vn 0.111824 0.369614 0.922432
vn -0.145759 0.363061 0.920294
vn -0.921819 0.246050 0.299515
vn -0.784290 0.245348 0.569819
vn -0.784173 0.245348 0.569980
vn -0.921747 0.246050 0.299737
vn -0.969059 0.246828 -0.000000
vn -0.969059 0.246827 0.000244
vn -0.921442 0.247605 -0.299393
vn -0.921514 0.247605 -0.299172
vn -0.783680 0.248306 -0.569376
vn -0.783796 0.248306 -0.569217
vn -0.569293 0.248862 -0.783564
vn -0.569409 0.248862 -0.783480
vn -0.299266 0.249219 -0.921048
vn -0.299338 0.249219 -0.921025
vn -0.000000 0.249342 -0.968416
vn -0.000000 0.249342 -0.968416
vn 0.299266 0.249219 -0.921048
vn 0.299338 0.249219 -0.921025
vn 0.569293 0.248862 -0.783565
vn 0.569409 0.248862 -0.783480
vn 0.783680 0.248306 -0.569376
vn 0.783796 0.248306 -0.569217
vn 0.921442 0.247605 -0.299393
vn 0.921514 0.247605 -0.299172
vn 0.969059 0.246828 -0.000000
vn 0.969059 0.246827 0.000245
vn 0.921819 0.246050 0.299515
vn 0.921747 0.246050 0.299737
vn 0.784289 0.245348 0.569820
vn 0.784173 0.245348 0.569980
vn 0.569903 0.244791 0.784403
vn 0.569786 0.244790 0.784488
vn 0.299643 0.244433 0.922207
vn 0.299571 0.244433 0.922231
vn 0.116750 0.242638 0.963066
vn 0.116749 0.242638 0.963066
vn -0.151803 0.241478 0.958459
vn -0.151803 0.241478 0.958459
vn -0.310019 0.244427 0.918773
vn -0.309948 0.244427 0.918797
vn -0.569903 0.244791 0.784403
vn -0.569786 0.244790 0.784488
s 1
g pCylinder1
usemtl lambert2SG
f 1/21/1 2/22/2 55/97/3 56/99/4
f 2/22/2 3/23/5 54/96/6 55/97/3
f 3/23/5 4/24/7 53/95/8 54/96/6
f 4/24/7 5/25/9 52/94/10 53/95/8
f 5/25/9 6/26/11 51/93/12 52/94/10
f 6/26/11 7/27/13 50/92/14 51/93/12
f 7/27/13 8/28/15 49/91/16 50/92/14
f 8/28/15 9/29/17 48/90/18 49/91/16
f 9/29/17 10/30/19 47/89/20 48/90/18
f 10/30/19 11/31/21 46/88/22 47/89/20
f 11/31/21 12/32/23 45/87/24 46/88/22
f 12/32/23 13/33/25 44/86/26 45/87/24
f 13/33/25 14/34/27 43/85/28 44/86/26
f 65/109/29 15/35/30 62/105/31 64/108/32
f 15/35/30 16/36/33 61/104/34 62/105/31
f 16/36/33 17/37/35 60/103/36 61/104/34
f 17/37/35 18/38/37 59/102/38 60/103/36
f 18/38/37 19/39/39 58/101/40 59/102/38
f 19/39/39 20/40/41 57/100/42 58/101/40
f 20/40/41 1/41/1 56/98/4 57/100/42
s 3
#end
f 2/2/43 1/1/44 41/83/45
f 3/3/46 2/2/43 41/83/45
f 4/4/47 3/3/46 41/83/45
f 5/5/48 4/4/47 41/83/45
f 6/6/49 5/5/48 41/83/45
f 7/7/50 6/6/49 41/83/45
f 8/8/51 7/7/50 41/83/45
f 9/9/52 8/8/51 41/83/45
f 10/10/53 9/9/52 41/83/45
f 11/11/54 10/10/53 41/83/45
f 12/12/55 11/11/54 41/83/45
f 13/13/56 12/12/55 41/83/45
f 14/14/57 13/13/56 41/83/45
f 15/15/58 65/110/59 14/14/57 41/83/45
f 16/16/60 15/15/58 41/83/45
f 17/17/61 16/16/60 41/83/45
f 18/18/62 17/17/61 41/83/45
f 19/19/63 18/18/62 41/83/45
f 20/20/64 19/19/63 41/83/45
f 1/1/44 20/20/64 41/83/45
s 4
#? lip
f 21/81/65 22/80/66 42/84/67
f 22/80/66 23/79/68 42/84/67
f 23/79/68 24/78/69 42/84/67
f 24/78/69 25/77/70 42/84/67
f 25/77/70 26/76/71 42/84/67
f 26/76/71 27/75/72 42/84/67
f 27/75/72 28/74/73 42/84/67
f 28/74/73 29/73/74 42/84/67
f 29/73/74 30/72/75 42/84/67
f 30/72/75 31/71/76 42/84/67
f 31/71/76 32/70/77 42/84/67
f 32/70/77 33/69/78 42/84/67
f 33/69/78 34/68/79 42/84/67
f 34/68/79 63/106/80 35/67/81 42/84/67
f 35/67/81 36/66/82 42/84/67
f 36/66/82 37/65/83 42/84/67
f 37/65/83 38/64/84 42/84/67
f 38/64/84 39/63/85 42/84/67
f 39/63/85 40/82/86 42/84/67
f 40/82/86 21/81/65 42/84/67
s 1
#tip and part of shaft?
f 44/86/26 43/85/28 85/131/87 86/132/88
f 45/87/24 44/86/26 86/132/88 66/111/89
f 46/88/22 45/87/24 66/111/89 67/112/90
f 47/89/20 46/88/22 67/112/90 68/113/91
f 48/90/18 47/89/20 68/113/91 69/114/92
f 49/91/16 48/90/18 69/114/92 70/115/93
f 50/92/14 49/91/16 70/115/93 71/116/94
f 51/93/12 50/92/14 71/116/94 72/117/95
f 52/94/10 51/93/12 72/117/95 73/118/96
f 53/95/8 52/94/10 73/118/96 74/119/97
f 54/96/6 53/95/8 74/119/97 75/120/98
f 55/97/3 54/96/6 75/120/98 76/121/99
f 56/99/4 55/97/3 76/121/99 77/123/100
f 57/100/42 56/98/4 77/122/100 78/124/101
f 58/101/40 57/100/42 78/124/101 79/125/102
f 59/102/38 58/101/40 79/125/102 80/126/103
f 60/103/36 59/102/38 80/126/103 81/127/104
f 61/104/34 60/103/36 81/127/104 82/128/105
f 62/105/31 61/104/34 82/128/105 83/129/106
f 64/108/32 62/105/31 83/129/106 84/130/107
f 43/85/28 64/108/32 84/130/107 85/131/87
f 14/34/27 65/109/29 64/108/32 43/85/28
f 92/138/108 67/112/90 66/111/89 91/137/109 32/53/110 31/52/111
f 93/139/112 68/113/91 67/112/90 92/138/108 31/52/111 30/51/113
f 94/140/114 69/114/92 68/113/91 93/139/112 30/51/113 29/50/115
f 95/141/116 70/115/93 69/114/92 94/140/114 29/50/115 28/49/117
f 96/142/118 71/116/94 70/115/93 95/141/116 28/49/117 27/48/119
f 97/143/120 72/117/95 71/116/94 96/142/118 27/48/119 26/47/121
f 98/144/122 73/118/96 72/117/95 97/143/120 26/47/121 25/46/123
f 99/145/124 74/119/97 73/118/96 98/144/122 25/46/123 24/45/125
f 100/146/126 75/120/98 74/119/97 99/145/124 24/45/125 23/44/127
f 101/147/128 76/121/99 75/120/98 100/146/126 23/44/127 22/43/129
f 102/149/130 77/123/100 76/121/99 101/147/128 22/43/129 21/42/131
f 103/150/132 78/124/101 77/122/100 102/148/130 21/62/131 40/61/133
f 104/151/134 79/125/102 78/124/101 103/150/132 40/61/133 39/60/135
f 105/152/136 80/126/103 79/125/102 104/151/134 39/60/135 38/59/137
f 106/153/138 81/127/104 80/126/103 105/152/136 38/59/137 37/58/139
f 107/154/140 82/128/105 81/127/104 106/153/138 37/58/139 36/57/141
f 87/133/142 83/129/106 82/128/105 107/154/140 36/57/141 35/56/143
f 88/134/144 84/130/107 83/129/106 87/133/142 35/56/143 63/107/145
f 89/135/146 85/131/87 84/130/107 88/134/144 63/107/145 34/55/147
f 90/136/148 86/132/88 85/131/87 89/135/146 34/55/147 33/54/149
f 91/137/109 66/111/89 86/132/88 90/136/148 33/54/149 32/53/110
